<svg xmlns="http://www.w3.org/2000/svg" width="1200" height="800" viewBox="0 0 1200 800">
  <defs>
    <linearGradient id="bg" x1="0" y1="0" x2="1" y2="1">
      <stop offset="0" stop-color="#071225"/>
      <stop offset="0.5" stop-color="#0B1020"/>
      <stop offset="1" stop-color="#05060A"/>
    </linearGradient>
    <linearGradient id="accent" x1="0" y1="0" x2="1" y2="0">
      <stop offset="0" stop-color="#A78BFA"/>
      <stop offset="0.5" stop-color="#4F8CFF"/>
      <stop offset="1" stop-color="#3EE7FF"/>
    </linearGradient>
    <filter id="blur" x="-20%" y="-20%" width="140%" height="140%">
      <feGaussianBlur stdDeviation="32"/>
    </filter>
  </defs>
  <rect width="1200" height="800" rx="36" fill="url(#bg)"/>
  <circle cx="280" cy="230" r="260" fill="#A78BFA" opacity="0.12" filter="url(#blur)"/>
  <circle cx="980" cy="260" r="260" fill="#4F8CFF" opacity="0.10" filter="url(#blur)"/>
  <circle cx="860" cy="700" r="280" fill="#3EE7FF" opacity="0.10" filter="url(#blur)"/>
  <rect x="90" y="96" width="1020" height="610" rx="28" fill="rgba(255,255,255,0.04)" stroke="rgba(255,255,255,0.10)"/>
  <rect x="120" y="130" width="960" height="54" rx="16" fill="rgba(255,255,255,0.05)" stroke="rgba(255,255,255,0.12)"/>
  <rect x="140" y="150" width="180" height="18" rx="9" fill="url(#accent)" opacity="0.9"/>
  <rect x="360" y="150" width="180" height="18" rx="9" fill="rgba(255,255,255,0.10)"/>
  <rect x="560" y="150" width="160" height="18" rx="9" fill="rgba(255,255,255,0.10)"/>
  <rect x="740" y="150" width="320" height="18" rx="9" fill="rgba(255,255,255,0.10)"/>
  <rect x="120" y="210" width="300" height="470" rx="24" fill="rgba(255,255,255,0.04)" stroke="rgba(255,255,255,0.12)"/>
  <rect x="450" y="210" width="630" height="300" rx="24" fill="rgba(255,255,255,0.04)" stroke="rgba(255,255,255,0.12)"/>
  <rect x="450" y="538" width="630" height="142" rx="24" fill="rgba(255,255,255,0.04)" stroke="rgba(255,255,255,0.12)"/>
  <rect x="160" y="250" width="220" height="16" rx="8" fill="url(#accent)" opacity="0.9"/>
  <rect x="160" y="286" width="200" height="12" rx="6" fill="rgba(255,255,255,0.12)"/>
  <rect x="160" y="308" width="220" height="12" rx="6" fill="rgba(255,255,255,0.10)"/>
  <rect x="160" y="330" width="180" height="12" rx="6" fill="rgba(255,255,255,0.08)"/>
  <rect x="160" y="380" width="200" height="12" rx="6" fill="rgba(255,255,255,0.12)"/>
  <rect x="160" y="402" width="220" height="12" rx="6" fill="rgba(255,255,255,0.10)"/>
  <rect x="160" y="424" width="170" height="12" rx="6" fill="rgba(255,255,255,0.08)"/>
  <rect x="490" y="250" width="420" height="18" rx="9" fill="url(#accent)" opacity="0.9"/>
  <rect x="490" y="286" width="560" height="12" rx="6" fill="rgba(255,255,255,0.12)"/>
  <rect x="490" y="308" width="520" height="12" rx="6" fill="rgba(255,255,255,0.10)"/>
  <rect x="490" y="330" width="540" height="12" rx="6" fill="rgba(255,255,255,0.08)"/>
  <rect x="490" y="580" width="260" height="16" rx="8" fill="url(#accent)" opacity="0.9"/>
  <rect x="490" y="612" width="540" height="12" rx="6" fill="rgba(255,255,255,0.12)"/>
  <rect x="490" y="634" width="470" height="12" rx="6" fill="rgba(255,255,255,0.10)"/>
  <text x="94" y="758" fill="rgba(255,255,255,0.55)" font-family="Inter, system-ui, -apple-system, Segoe UI, Roboto, Arial" font-size="20" font-weight="600">Preview • Compras Londrina</text>
</svg>

