<svg xmlns="http://www.w3.org/2000/svg" width="1200" height="800" viewBox="0 0 1200 800">
  <defs>
    <linearGradient id="bg" x1="0" y1="0" x2="1" y2="1">
      <stop offset="0" stop-color="#071225"/>
      <stop offset="0.5" stop-color="#0B1020"/>
      <stop offset="1" stop-color="#05060A"/>
    </linearGradient>
    <linearGradient id="accent" x1="0" y1="0" x2="1" y2="0">
      <stop offset="0" stop-color="#3EE7FF"/>
      <stop offset="0.5" stop-color="#4F8CFF"/>
      <stop offset="1" stop-color="#A78BFA"/>
    </linearGradient>
    <filter id="blur" x="-20%" y="-20%" width="140%" height="140%">
      <feGaussianBlur stdDeviation="28"/>
    </filter>
  </defs>
  <rect width="1200" height="800" rx="36" fill="url(#bg)"/>
  <circle cx="260" cy="220" r="220" fill="#3EE7FF" opacity="0.14" filter="url(#blur)"/>
  <circle cx="980" cy="260" r="260" fill="#A78BFA" opacity="0.12" filter="url(#blur)"/>
  <circle cx="820" cy="690" r="260" fill="#3BFFB6" opacity="0.10" filter="url(#blur)"/>
  <rect x="90" y="96" width="1020" height="610" rx="28" fill="rgba(255,255,255,0.04)" stroke="rgba(255,255,255,0.10)"/>
  <rect x="120" y="130" width="960" height="54" rx="16" fill="rgba(255,255,255,0.05)" stroke="rgba(255,255,255,0.12)"/>
  <circle cx="148" cy="157" r="7" fill="rgba(255,255,255,0.28)"/>
  <circle cx="172" cy="157" r="7" fill="rgba(255,255,255,0.18)"/>
  <circle cx="196" cy="157" r="7" fill="rgba(255,255,255,0.12)"/>
  <rect x="240" y="147" width="250" height="20" rx="10" fill="rgba(255,255,255,0.10)"/>
  <rect x="120" y="210" width="410" height="210" rx="22" fill="rgba(255,255,255,0.04)" stroke="rgba(255,255,255,0.12)"/>
  <rect x="560" y="210" width="520" height="210" rx="22" fill="rgba(255,255,255,0.04)" stroke="rgba(255,255,255,0.12)"/>
  <rect x="120" y="450" width="960" height="230" rx="22" fill="rgba(255,255,255,0.04)" stroke="rgba(255,255,255,0.12)"/>
  <rect x="150" y="250" width="280" height="18" rx="9" fill="url(#accent)" opacity="0.92"/>
  <rect x="150" y="278" width="320" height="12" rx="6" fill="rgba(255,255,255,0.14)"/>
  <rect x="150" y="298" width="260" height="12" rx="6" fill="rgba(255,255,255,0.10)"/>
  <rect x="590" y="250" width="320" height="18" rx="9" fill="url(#accent)" opacity="0.92"/>
  <rect x="590" y="278" width="420" height="12" rx="6" fill="rgba(255,255,255,0.14)"/>
  <rect x="590" y="298" width="360" height="12" rx="6" fill="rgba(255,255,255,0.10)"/>
  <rect x="150" y="490" width="220" height="16" rx="8" fill="url(#accent)" opacity="0.92"/>
  <rect x="150" y="522" width="820" height="12" rx="6" fill="rgba(255,255,255,0.12)"/>
  <rect x="150" y="544" width="740" height="12" rx="6" fill="rgba(255,255,255,0.10)"/>
  <rect x="150" y="566" width="780" height="12" rx="6" fill="rgba(255,255,255,0.08)"/>
  <text x="94" y="758" fill="rgba(255,255,255,0.55)" font-family="Inter, system-ui, -apple-system, Segoe UI, Roboto, Arial" font-size="20" font-weight="600">Preview • EletroStart</text>
</svg>

