<svg xmlns="http://www.w3.org/2000/svg" width="1200" height="800" viewBox="0 0 1200 800">
  <defs>
    <linearGradient id="bg" x1="0" y1="0" x2="1" y2="1">
      <stop offset="0" stop-color="#06101F"/>
      <stop offset="0.55" stop-color="#0B1020"/>
      <stop offset="1" stop-color="#05060A"/>
    </linearGradient>
    <linearGradient id="accent" x1="0" y1="0" x2="1" y2="0">
      <stop offset="0" stop-color="#3BFFB6"/>
      <stop offset="0.5" stop-color="#3EE7FF"/>
      <stop offset="1" stop-color="#4F8CFF"/>
    </linearGradient>
    <filter id="blur" x="-20%" y="-20%" width="140%" height="140%">
      <feGaussianBlur stdDeviation="30"/>
    </filter>
  </defs>
  <rect width="1200" height="800" rx="36" fill="url(#bg)"/>
  <circle cx="320" cy="210" r="260" fill="#3BFFB6" opacity="0.12" filter="url(#blur)"/>
  <circle cx="980" cy="200" r="240" fill="#3EE7FF" opacity="0.10" filter="url(#blur)"/>
  <circle cx="840" cy="700" r="280" fill="#4F8CFF" opacity="0.10" filter="url(#blur)"/>
  <rect x="90" y="96" width="1020" height="610" rx="28" fill="rgba(255,255,255,0.04)" stroke="rgba(255,255,255,0.10)"/>
  <rect x="120" y="130" width="960" height="54" rx="16" fill="rgba(255,255,255,0.05)" stroke="rgba(255,255,255,0.12)"/>
  <rect x="140" y="150" width="140" height="18" rx="9" fill="url(#accent)" opacity="0.9"/>
  <rect x="860" y="150" width="200" height="18" rx="9" fill="rgba(255,255,255,0.10)"/>
  <rect x="120" y="210" width="960" height="250" rx="24" fill="rgba(255,255,255,0.04)" stroke="rgba(255,255,255,0.12)"/>
  <rect x="160" y="254" width="520" height="22" rx="11" fill="url(#accent)"/>
  <rect x="160" y="292" width="720" height="14" rx="7" fill="rgba(255,255,255,0.14)"/>
  <rect x="160" y="316" width="650" height="14" rx="7" fill="rgba(255,255,255,0.10)"/>
  <rect x="160" y="340" width="700" height="14" rx="7" fill="rgba(255,255,255,0.08)"/>
  <rect x="120" y="490" width="610" height="190" rx="24" fill="rgba(255,255,255,0.04)" stroke="rgba(255,255,255,0.12)"/>
  <rect x="750" y="490" width="330" height="190" rx="24" fill="rgba(255,255,255,0.04)" stroke="rgba(255,255,255,0.12)"/>
  <rect x="160" y="530" width="220" height="18" rx="9" fill="url(#accent)" opacity="0.9"/>
  <rect x="160" y="562" width="520" height="12" rx="6" fill="rgba(255,255,255,0.12)"/>
  <rect x="160" y="584" width="480" height="12" rx="6" fill="rgba(255,255,255,0.10)"/>
  <rect x="160" y="606" width="500" height="12" rx="6" fill="rgba(255,255,255,0.08)"/>
  <rect x="780" y="530" width="250" height="18" rx="9" fill="url(#accent)" opacity="0.9"/>
  <rect x="780" y="562" width="250" height="12" rx="6" fill="rgba(255,255,255,0.12)"/>
  <rect x="780" y="584" width="220" height="12" rx="6" fill="rgba(255,255,255,0.10)"/>
  <text x="94" y="758" fill="rgba(255,255,255,0.55)" font-family="Inter, system-ui, -apple-system, Segoe UI, Roboto, Arial" font-size="20" font-weight="600">Preview • Start Solar</text>
</svg>

